<?xml version="1.0" standalone="no"?>
<!DOCTYPE svg PUBLIC "-//W3C//DTD SVG 20010904//EN"
 "http://www.w3.org/TR/2001/REC-SVG-20010904/DTD/svg10.dtd">
<svg version="1.0" xmlns="http://www.w3.org/2000/svg"
 width="700.000000pt" height="700.000000pt" viewBox="0 0 700.000000 700.000000"
 preserveAspectRatio="xMidYMid meet">
<metadata>
Created by potrace 1.14, written by Peter Selinger 2001-2017
</metadata>
<g transform="translate(0.000000,700.000000) scale(0.100000,-0.100000)"
fill="#000000" stroke="none">
<path d="M1040 6990 c-30 -4 -77 -11 -105 -15 -179 -24 -382 -104 -513 -202
-218 -162 -347 -392 -397 -708 -4 -22 -9 -51 -13 -65 -3 -14 -7 -1118 -8
-2455 -3 -2575 -3 -2542 42 -2720 92 -362 279 -589 587 -716 80 -33 229 -75
299 -84 26 -3 69 -10 95 -15 29 -5 1021 -9 2463 -9 2497 1 2466 0 2656 39 329
67 576 249 717 526 58 114 111 313 125 464 9 101 9 4869 0 4945 -44 366 -170
616 -400 792 -113 88 -273 156 -444 192 -55 11 -115 24 -134 28 -47 10 -4900
13 -4970 3z"/>
</g>
</svg>
